<?xml version="1.0" encoding="UTF-8"?>
<svg id="Layer_2" data-name="Layer 2" xmlns="http://www.w3.org/2000/svg" viewBox="0 0 951.14 79.3">
  <defs>
    <style>
      .cls-1 {
        fill: #191816;
      }

      .cls-2 {
        fill: none;
        stroke: #191816;
        stroke-miterlimit: 10;
        stroke-width: 2.5px;
      }
    </style>
  </defs>
  <g id="Layer_1-2" data-name="Layer 1">
    <g>
      <g>
        <path class="cls-1" d="M18.2,40.3h35.1v-22.4c0-5.7-1.4-6.2-8.8-7.1v-2.7h27v2.7c-7.4.9-8.8,1.4-8.8,7.1v50.6c0,5.7,1.4,6.2,8.8,7.1v2.7h-27v-2.7c7.4-.9,8.8-1.4,8.8-7.1v-24.8H18.2v24.8c0,5.7,1.4,6.2,8.8,7.1v2.7H0v-2.7c7.4-.9,8.8-1.4,8.8-7.1V17.9c0-5.7-1.4-6.2-8.8-7.1v-2.7h27v2.7c-7.4.9-8.8,1.4-8.8,7.1v22.4Z"/>
        <path class="cls-1" d="M121.6,45.1v2.1h-33.2c-.7,16.2,7.3,25.4,17.7,25.4,7.2,0,11.5-3.4,15-8.9l1.2.6c-2.4,8.7-9.3,15-19.7,15-14.2,0-22.3-11.5-22.3-25.5,0-16.4,9.6-28.5,22.5-28.5s18.8,8.6,18.8,19.8ZM88.7,44.3h24.2c0-9-3.1-15.8-10.9-15.8s-12.3,6.9-13.3,15.8Z"/>
        <path class="cls-1" d="M199.3,41.6c0-7.2-2.5-10.5-8.4-10.5-5.1,0-9.2,2.8-13,6.1v33.5c0,3.9,1.6,4.7,6.9,5v2.6h-22.8v-2.6c5.3-.3,6.9-1.1,6.9-5v-29.1c0-7.2-2.5-10.5-8.4-10.5-5.1,0-9.2,2.8-13,6.1v33.5c0,3.9,1.6,4.7,6.9,5v2.6h-22.8v-2.6c5.3-.3,6.9-1.1,6.9-5v-35.8l-6.5-3.5v-1.1l14.7-5h1.2l-.4,9.5c4.7-5.2,9.7-9.5,17.6-9.5,7,0,10.8,3.2,12.2,9.8,4.7-5.2,10.3-9.8,18.2-9.8,9,0,12.8,5.6,12.8,16.4v29c0,3.9,1.6,4.7,6.9,5v2.6h-22.8v-2.6c5.3-.3,6.9-1.1,6.9-5v-29.1Z"/>
        <path class="cls-1" d="M261.6,67.2c0,4.4,1,6.6,3.9,6.6,1.6,0,3.1-.6,4.6-1.3l.5,1.5c-2.4,3.6-5.8,5.3-9.6,5.3-4.9,0-7.8-3.5-8.3-9.1-3.5,4.1-9.1,9.1-16.1,9.1-7.8,0-12.7-5.1-12.7-12.5,0-8.4,6.3-11.9,14.2-14.9l14.4-5.4v-6.8c0-6.9-2.6-11.9-9.2-11.9-5.7,0-8.1,3.8-8.1,8.9,0,1.7.2,3.2.7,5.2l-5.3.8c-2.5-.8-3.9-2.7-3.9-5.5,0-7.5,7.8-11.9,17.9-11.9,11.4,0,17,4.9,17,15.4v26.5ZM252.5,68.1v-18.8l-12,4.9c-5,2-7.9,4.8-7.9,10.1s3,9.1,8.7,9.1c4.1,0,7.1-1.9,11.2-5.3Z"/>
        <path class="cls-1" d="M315.8,41.6c0-7.4-3-10.5-8.9-10.5-5.1,0-10,2.8-13.8,6.1v33.5c0,3.9,1.6,4.7,6.9,5v2.6h-22.8v-2.6c5.3-.3,6.9-1.1,6.9-5v-35.8l-6.5-3.5v-1.1l14.7-5h1.2l-.4,9.5c4.7-5.2,10.5-9.5,18.2-9.5,9.2,0,13.5,5.3,13.5,16.1v29.3c0,3.9,1.6,4.7,6.9,5v2.6h-22.8v-2.6c5.3-.3,6.9-1.1,6.9-5v-29.1Z"/>
        <path class="cls-1" d="M353,26.3h14.3v3.8h-14.3v33.1c0,7.4,2.7,10.4,8.3,10.4,3.1,0,5.2-.9,7.9-2.9l.9,1.2c-2.6,3.8-7,7.4-13.2,7.4-7.2,0-12.7-3.9-12.7-14.6V30.1h-6.8v-1.4c5.7-3.1,10.3-8.5,13.6-14.8h2v12.4Z"/>
        <path class="cls-1" d="M382.8,9.6l-6.5-3.5v-1.1l14.3-5h1.2v34.8c4.7-5.2,10.5-9.5,18.2-9.5,9.2,0,13.5,5.6,13.5,16.4v29c0,3.9,1.6,4.7,6.9,5v2.6h-22.8v-2.6c5.3-.3,6.9-1.1,6.9-5v-29.1c0-7.4-3-10.5-8.9-10.5-5.1,0-10,2.8-13.8,6.1v33.5c0,3.9,1.6,4.7,6.9,5v2.6h-22.8v-2.6c5.3-.3,6.9-1.1,6.9-5V9.6Z"/>
        <path class="cls-1" d="M474.6,68.2c0,5.4,2.9,6.8,9.8,6.8h5.9c8.5,0,11.8-5.8,17.2-16.2h2.5l-3.2,19.5h-50.4v-2.7c7.4-.9,8.8-1.4,8.8-7.1V17.9c0-5.7-1.4-6.2-8.8-7.1v-2.7h27v2.7c-7.4.9-8.8,1.4-8.8,7.1v50.3Z"/>
        <path class="cls-1" d="M556,67.2c0,4.4,1,6.6,3.9,6.6,1.6,0,3.1-.6,4.6-1.3l.5,1.5c-2.4,3.6-5.8,5.3-9.6,5.3-4.9,0-7.8-3.5-8.3-9.1-3.5,4.1-9.1,9.1-16.1,9.1-7.8,0-12.7-5.1-12.7-12.5,0-8.4,6.3-11.9,14.2-14.9l14.4-5.4v-6.8c0-6.9-2.6-11.9-9.2-11.9-5.7,0-8.1,3.8-8.1,8.9,0,1.7.2,3.2.7,5.2l-5.3.8c-2.5-.8-3.9-2.7-3.9-5.5,0-7.5,7.8-11.9,17.9-11.9,11.4,0,17,4.9,17,15.4v26.5ZM546.9,68.1v-18.8l-12,4.9c-5,2-7.9,4.8-7.9,10.1s3,9.1,8.7,9.1c4.1,0,7.1-1.9,11.2-5.3Z"/>
        <path class="cls-1" d="M587.8,70.7c0,3.9,1.6,4.7,6.9,5v2.6h-22.8v-2.6c5.3-.3,6.9-1.1,6.9-5V9.6l-6.5-3.5v-1.1l14.3-5h1.2v70.7Z"/>
      </g>
      <g>
        <g>
          <path class="cls-1" d="M684.02,32.33l-.19-4.43h.94c.81,2.83,2.46,4.94,5.21,4.94,2.54,0,4.08-1.24,4.08-3.46,0-1.86-1.21-2.73-4.48-3.94-3.59-1.32-5.53-2.62-5.53-5.67,0-2.86,2.13-5.07,5.91-5.07,2.19,0,4.16.73,5.61,1.7v4.13h-.89c-.62-2.62-2.24-4.48-4.86-4.48-2.27,0-3.43,1.3-3.43,3.02,0,1.83.92,2.67,4.27,3.91,3.97,1.46,5.86,2.86,5.86,5.86,0,3.46-3.02,5.34-6.61,5.34-2.54,0-4.7-.86-5.88-1.86Z"/>
          <path class="cls-1" d="M723.46,14.98l.43,5.64h-.86c-1.59-3.7-1.89-4.43-4.35-4.43h-2.05v14.71c0,1.65,1.05,1.92,2.86,1.97v1.05h-8.31v-1.05c1.81-.05,2.83-.32,2.83-1.97v-14.71h-2c-2.46,0-2.75.73-4.37,4.43h-.84l.4-5.64h16.25Z"/>
          <path class="cls-1" d="M742.61,14.98c4.8,0,6.91,2.19,6.91,5.32s-2.65,4.78-5.21,5.02l4.54,5.64c.86,1.08,2.02,1.83,3.48,1.92v1.05h-3.86c-1-.62-1.57-1.21-2.46-2.38l-4.56-5.88h-1.43v5.24c0,1.65.97,1.92,2.73,1.97v1.05h-8.07v-1.05c1.81-.05,2.75-.32,2.75-1.97v-12.9c0-1.65-.94-1.92-2.75-1.97v-1.05h7.94ZM740.02,16.22v8.26h1.89c3.21,0,4.75-1.4,4.75-4.18,0-2.29-1.43-4.08-4.86-4.08h-1.78Z"/>
          <path class="cls-1" d="M774.23,27.66h-7.96l-1.19,2.94c-.16.41-.3.78-.3,1.08,0,.84.68,1.13,2.54,1.19v1.05h-6.05v-1.05c.73-.11,1.35-.27,1.65-1l6.4-15.36-.84-1.78h3l7.42,17.14c.3.73.84.89,1.62,1v1.05h-7.23v-1.05c1.86-.05,2.51-.32,2.51-1.16,0-.32-.13-.67-.3-1.08l-1.27-2.97ZM766.75,26.48h6.99l-3.56-8.45-3.43,8.45Z"/>
          <path class="cls-1" d="M805.81,14.98l.43,5.64h-.86c-1.59-3.7-1.89-4.43-4.35-4.43h-2.05v14.71c0,1.65,1.05,1.92,2.86,1.97v1.05h-8.31v-1.05c1.81-.05,2.83-.32,2.83-1.97v-14.71h-2c-2.46,0-2.75.73-4.37,4.43h-.84l.4-5.64h16.25Z"/>
          <path class="cls-1" d="M828.36,27.29c-.27-1.62-.76-2.43-1.94-2.43h-4.59v5.99c0,1.46.81,1.84,2.73,1.84h2.7c2.38,0,2.83-.78,4.56-3.62h.76l-.81,4.86h-15.28v-1.05c1.81-.05,2.75-.32,2.75-1.97v-12.9c0-1.65-.94-1.92-2.75-1.97v-1.05h15.14v4.51h-.73c-.97-2.35-1.73-3.27-3.91-3.27h-5.16v7.4h4.59c1.19,0,1.67-.81,1.94-2.43h.92v6.1h-.92Z"/>
          <path class="cls-1" d="M852.77,14.71c2.83,0,4.72.73,5.96,1.7v4.13h-.97c-.73-3.13-2.67-4.45-5.16-4.45-4.35,0-6.4,3.62-6.4,8.02,0,4.91,2.21,8.72,6.59,8.72,1.7,0,2.75-.3,3.73-1.19v-3.78c0-1.62-.92-1.89-2.65-1.97v-1.03h7.58v1.03c-1.7.08-2.43.35-2.43,1.97v4.4c-1.73,1.21-3.86,1.94-6.48,1.94-5.7,0-9.23-3.86-9.23-9.34,0-6.32,4.24-10.15,9.45-10.15Z"/>
          <path class="cls-1" d="M871.7,33.93v-1.05c1.81-.05,2.75-.32,2.75-1.97v-12.9c0-1.65-.94-1.92-2.75-1.97v-1.05h8.1v1.05c-1.81.05-2.75.32-2.75,1.97v12.9c0,1.65.94,1.92,2.75,1.97v1.05h-8.1Z"/>
          <path class="cls-1" d="M905.58,28.12h1l-.62,4.59c-1.75.89-3.43,1.48-6.29,1.48-5.34,0-8.88-3.91-8.88-9.34,0-6.32,4.1-10.15,9.31-10.15,2.83,0,4.59.73,5.83,1.7v4.13h-.97c-.73-3.13-2.54-4.45-5.02-4.45-4.35,0-6.26,3.62-6.26,8.02,0,4.91,2.21,8.72,6.59,8.72,2.7,0,4.27-1.59,5.32-4.7Z"/>
        </g>
        <g>
          <path class="cls-1" d="M696.62,63.23h1l-.62,4.59c-1.75.89-3.43,1.48-6.29,1.48-5.34,0-8.88-3.91-8.88-9.34,0-6.32,4.1-10.15,9.31-10.15,2.83,0,4.59.73,5.83,1.7v4.13h-.97c-.73-3.13-2.54-4.45-5.02-4.45-4.35,0-6.26,3.62-6.26,8.02,0,4.91,2.21,8.72,6.59,8.72,2.7,0,4.27-1.59,5.32-4.7Z"/>
          <path class="cls-1" d="M727.04,59.18c0,6.18-4.1,10.12-9.02,10.12-5.59,0-8.85-4.35-8.85-9.37,0-6.18,4.1-10.12,9.02-10.12,5.59,0,8.85,4.35,8.85,9.37ZM724.16,59.64c0-4.13-1.86-8.34-6.34-8.34-3.83,0-5.75,3.56-5.75,8.18,0,4.13,1.86,8.34,6.34,8.34,3.83,0,5.75-3.56,5.75-8.18Z"/>
          <path class="cls-1" d="M741.06,52.83c-1.08-1.27-1.43-1.67-2.75-1.7v-1.05h4.62l11.23,14.23v-11.2c0-1.65-.95-1.92-2.75-1.97v-1.05h7.07v1.05c-1.81.05-2.75.32-2.75,1.97v15.93h-1.11l-11.99-14.98v11.96c0,1.65.95,1.92,2.75,1.97v1.05h-7.07v-1.05c1.81-.05,2.75-.32,2.75-1.97v-13.17Z"/>
          <path class="cls-1" d="M769.87,67.44l-.19-4.43h.94c.81,2.83,2.46,4.94,5.21,4.94,2.54,0,4.08-1.24,4.08-3.46,0-1.86-1.21-2.73-4.48-3.94-3.59-1.32-5.53-2.62-5.53-5.67,0-2.86,2.13-5.07,5.91-5.07,2.19,0,4.16.73,5.61,1.7v4.13h-.89c-.62-2.62-2.24-4.48-4.86-4.48-2.27,0-3.43,1.3-3.43,3.02,0,1.83.92,2.67,4.27,3.91,3.97,1.46,5.86,2.86,5.86,5.86,0,3.46-3.02,5.34-6.61,5.34-2.54,0-4.7-.86-5.88-1.86Z"/>
          <path class="cls-1" d="M798.11,62.39c0,3.37,1.86,5.21,4.94,5.21,3.64,0,5.64-1.54,5.64-5.43v-9.07c0-1.65-.97-1.92-2.75-1.97v-1.05h7.05v1.05c-1.78.05-2.73.32-2.73,1.97v9.58c0,4.48-3.4,6.59-7.26,6.59-4.54,0-7.5-2.08-7.5-6.64v-9.53c0-1.65-.97-1.92-2.75-1.97v-1.05h8.1v1.05c-1.78.05-2.73.32-2.73,1.97v9.29Z"/>
          <path class="cls-1" d="M828.4,65.95c0,1.46.81,1.84,2.73,1.84h1.57c2.38,0,2.97-1.21,4.48-4.02h.86l-.86,5.26h-14.14v-1.05c1.81-.05,2.75-.32,2.75-1.97v-12.9c0-1.65-.94-1.92-2.75-1.97v-1.05h8.1v1.05c-1.75.05-2.73.32-2.73,1.97v12.85Z"/>
          <path class="cls-1" d="M864.53,50.08l.43,5.64h-.86c-1.59-3.7-1.89-4.43-4.35-4.43h-2.05v14.71c0,1.65,1.05,1.92,2.86,1.97v1.05h-8.31v-1.05c1.81-.05,2.83-.32,2.83-1.97v-14.71h-2c-2.46,0-2.75.73-4.37,4.43h-.84l.4-5.64h16.25Z"/>
          <path class="cls-1" d="M887.91,62.77h-7.96l-1.19,2.94c-.16.41-.3.78-.3,1.08,0,.84.67,1.13,2.54,1.19v1.05h-6.05v-1.05c.73-.11,1.35-.27,1.65-1l6.4-15.36-.84-1.78h3l7.42,17.14c.3.73.84.89,1.62,1v1.05h-7.23v-1.05c1.86-.05,2.51-.32,2.51-1.16,0-.32-.13-.67-.3-1.08l-1.27-2.97ZM880.43,61.58h6.99l-3.56-8.45-3.43,8.45Z"/>
          <path class="cls-1" d="M906.38,52.83c-1.08-1.27-1.43-1.67-2.75-1.7v-1.05h4.62l11.23,14.23v-11.2c0-1.65-.95-1.92-2.75-1.97v-1.05h7.07v1.05c-1.81.05-2.75.32-2.75,1.97v15.93h-1.11l-11.99-14.98v11.96c0,1.65.95,1.92,2.75,1.97v1.05h-7.07v-1.05c1.81-.05,2.75-.32,2.75-1.97v-13.17Z"/>
          <path class="cls-1" d="M950.71,50.08l.43,5.64h-.86c-1.59-3.7-1.89-4.43-4.35-4.43h-2.05v14.71c0,1.65,1.05,1.92,2.86,1.97v1.05h-8.31v-1.05c1.81-.05,2.83-.32,2.83-1.97v-14.71h-2c-2.46,0-2.75.73-4.37,4.43h-.84l.4-5.64h16.25Z"/>
        </g>
      </g>
      <line class="cls-2" x1="638.26" x2="638.26" y2="79.3"/>
    </g>
  </g>
</svg>